<?xml version="1.0" encoding="utf-8"?>
<!-- Generator: Adobe Illustrator 19.0.0, SVG Export Plug-In . SVG Version: 6.00 Build 0)  -->
<svg version="1.1" id="Layer_1" xmlns="http://www.w3.org/2000/svg" xmlns:xlink="http://www.w3.org/1999/xlink" x="0px" y="0px"
	 viewBox="0 0 142 142" style="enable-background:new 0 0 142 142;" xml:space="preserve">
<style type="text/css">
	.st0{fill:#273071;}
	.st1{fill:#FFFFFF;}
</style>
<circle id="XMLID_3_" class="st0" cx="71" cy="71" r="71"/>
<path class="st1" d="M104.3,103.4c-3.8-0.6-6.8-3.2-9.9-5.3c1.4-1.4,2.8-2.7,4-4.2c5.3-6.1,8.9-13.9,9.4-22.1
	c0.1-2.8,0.2-5.6-0.3-8.3c-1-7.4-4.1-14.5-9.2-20c-5.3-5.8-12.7-9.5-20.5-10.6c-2.7-0.3-5.4-0.7-8.1-0.3c-3.5,0-7,0.5-10.4,1.5
	c-7.4,2.2-14,7-18.6,13.2c-4.4,5.8-7,12.9-7.8,20.1c-0.4,3.5-0.3,7,0.5,10.4c1.1,6.4,3.9,12.7,8.2,17.6c5.3,6.1,12.9,10.1,20.8,11.5
	c3.6,0.8,7.4,0.6,11,0.5c4.1-0.6,8-1.9,11.7-3.7c0.4-0.2,1-0.5,1.4-0.1c1.5,1.1,2.9,2.3,4.6,3.3c2.8,1.7,6.2,2.6,9.5,2
	c4-0.7,7.4-3.3,9.8-6.5C108.5,103.4,106.3,103.9,104.3,103.4z M90.1,94.8c-3.3-2.3-7-4.1-11.1-4.4c-1.5-0.1-2.9-0.1-4.4,0
	c-2.2,0.3-4.3,0.9-6.4,1.6c1.6,0.3,3.3,0.6,4.7,1.3c3.3,1.5,6.1,4,8.5,6.6c-3.5,1.4-7.3,1.9-11.1,1.8c-5.5-0.3-10.7-3-14.6-6.8
	c-3.8-3.7-6.7-8.3-8.7-13.2c-1.5-3.9-2.4-7.9-2.8-12C44,62.6,45.1,55.2,48.6,49c2.3-4.2,6-7.6,10.5-9.3c5.7-2.2,12.2-2.2,17.8,0.2
	c5.1,2.1,9.3,6,12.4,10.4c4,5.6,6.5,12.2,7.5,18.9C97.5,73,97.7,77,97,80.8C96.2,86,93.9,91.1,90.1,94.8z"/>
</svg>
